<?xml version="1.0" standalone="no"?>
<!DOCTYPE svg PUBLIC "-//W3C//DTD SVG 20010904//EN"
 "http://www.w3.org/TR/2001/REC-SVG-20010904/DTD/svg10.dtd">
<svg version="1.0" xmlns="http://www.w3.org/2000/svg"
 width="700.000000pt" height="700.000000pt" viewBox="0 0 700.000000 700.000000"
 preserveAspectRatio="xMidYMid meet">
<metadata>
Created by potrace 1.14, written by Peter Selinger 2001-2017
</metadata>
<g transform="translate(0.000000,700.000000) scale(0.100000,-0.100000)"
fill="#000000" stroke="none">
<path d="M3375 6404 c-603 -33 -1072 -143 -1488 -348 -527 -260 -875 -619
-993 -1024 -54 -187 -54 -169 -54 -1740 0 -1425 0 -1456 20 -1554 39 -191 121
-351 268 -528 378 -454 1122 -778 2027 -882 171 -20 714 -17 900 5 428 51 778
143 1099 288 670 303 1047 742 1131 1316 14 95 15 270 12 1463 -4 1483 0 1393
-63 1615 -29 105 -113 285 -175 376 -132 197 -302 352 -544 498 -462 277 -949
438 -1499 496 -144 15 -512 26 -641 19z m535 -389 c782 -71 1306 -282 1691
-682 141 -146 231 -297 281 -469 31 -108 33 -352 4 -459 -95 -349 -355 -622
-806 -846 -294 -146 -654 -242 -1145 -305 -688 -88 -1334 22 -1970 336 -405
201 -620 443 -707 798 -18 73 -21 119 -22 287 l-1 200 47 95 c153 314 398 539
810 746 534 268 1110 362 1818 299z"/>
</g>
</svg>
